<svg width="23" height="23" viewBox="0 0 23 23" fill="none" xmlns="http://www.w3.org/2000/svg">
<path fill-rule="evenodd" clip-rule="evenodd" d="M20.875 13.0625C21.738 13.0625 22.4375 13.7621 22.4375 14.625V19.3125C22.4375 21.0384 21.0384 22.4375 19.3125 22.4375H3.6875C1.96161 22.4375 0.5625 21.0384 0.5625 19.3125V14.625C0.5625 13.7621 1.26206 13.0625 2.125 13.0625C2.98794 13.0625 3.6875 13.762 3.6875 14.625V19.3125H19.3125V14.625C19.3125 13.762 20.012 13.0625 20.875 13.0625ZM11.5 0.5625C12.3629 0.5625 13.0625 1.26206 13.0625 2.125V9.2903L15.0827 7.27014C15.6928 6.65995 16.6822 6.65995 17.2923 7.27014C17.9025 7.88034 17.9025 8.86966 17.2923 9.47986L11.5 15.2722L5.70764 9.47986C5.09745 8.86966 5.09745 7.88034 5.70764 7.27014C6.31784 6.65995 7.30716 6.65995 7.91736 7.27014L9.9375 9.2903V2.125C9.9375 1.26206 10.6371 0.5625 11.5 0.5625Z" fill="white"/>
</svg>
