<svg width="28" height="25" viewBox="0 0 28 25" fill="none" xmlns="http://www.w3.org/2000/svg">
<path fill-rule="evenodd" clip-rule="evenodd" d="M9.44753 0.833187C9.4927 0.833274 9.53796 0.833347 9.58325 0.833347C9.62861 0.833347 9.67381 0.833274 9.71902 0.833187C10.2567 0.832297 10.7852 0.831422 11.256 0.957568C12.5142 1.29469 13.4968 2.27742 13.834 3.53557C13.9601 4.00637 13.9593 4.53489 13.9584 5.07261C13.9584 5.1178 13.9583 5.16305 13.9583 5.20835H25.6249C26.4304 5.20835 27.0833 5.86126 27.0833 6.66668C27.0833 7.47209 26.4304 8.12501 25.6249 8.12501H13.9583C13.9583 8.17031 13.9584 8.21556 13.9584 8.26076C13.9593 8.79847 13.9601 9.32699 13.834 9.79786C13.4968 11.056 12.5142 12.0387 11.256 12.3757C10.7852 12.5019 10.2567 12.501 9.71902 12.5001C9.67381 12.5001 9.62861 12.5 9.58325 12.5C9.53796 12.5 9.49271 12.5001 9.44751 12.5001C8.90979 12.501 8.38128 12.5019 7.91047 12.3757C6.65232 12.0387 5.6696 11.056 5.33249 9.79786C5.20633 9.32697 5.2072 8.79847 5.20811 8.26074C5.20818 8.21556 5.20825 8.1703 5.20825 8.12501H2.29159C1.48618 8.12501 0.833252 7.47209 0.833252 6.66668C0.833252 5.86126 1.48618 5.20835 2.29159 5.20835H5.20825C5.20825 5.16305 5.20818 5.1178 5.20811 5.07261C5.2072 4.53489 5.20633 4.00637 5.33249 3.53557C5.6696 2.27742 6.65232 1.29469 7.91047 0.957568C8.38128 0.831422 8.90979 0.832297 9.44753 0.833187ZM8.85206 3.75782C8.69651 3.7649 8.65991 3.77632 8.66536 3.77485C8.41373 3.84228 8.21719 4.03882 8.14977 4.29046C8.14854 4.29558 8.13896 4.34038 8.13272 4.47714C8.12527 4.64052 8.12492 4.85607 8.12492 5.20835V8.12501C8.12492 8.47727 8.12527 8.69283 8.13272 8.85621C8.13981 9.01175 8.15123 9.04834 8.14977 9.0429C8.21719 9.29453 8.41373 9.49108 8.66536 9.5585C8.65991 9.55704 8.69651 9.56844 8.85206 9.57555C9.01542 9.583 9.23098 9.58333 9.58325 9.58333C9.93559 9.58333 10.1511 9.583 10.3145 9.57555C10.4699 9.56844 10.5065 9.55704 10.5011 9.5585C10.7528 9.49108 10.9493 9.29453 11.0168 9.0429C11.0153 9.04834 11.0267 9.01175 11.0337 8.85621C11.0413 8.69283 11.0416 8.47727 11.0416 8.12501V5.20835C11.0416 4.85607 11.0413 4.64052 11.0337 4.47714C11.0267 4.32161 11.0153 4.285 11.0168 4.29046M8.85206 3.75782C9.01542 3.75036 9.23098 3.75001 9.58325 3.75001L8.85206 3.75782ZM9.58325 3.75001C9.93559 3.75001 10.1511 3.75036 10.3145 3.75782L9.58325 3.75001ZM10.3145 3.75782C10.4513 3.76404 10.496 3.77362 10.5011 3.77485L10.3145 3.75782ZM18.1975 12.4999C18.2427 12.5 18.2879 12.5 18.3333 12.5C18.3786 12.5 18.4238 12.5 18.469 12.4999C19.0067 12.499 19.5352 12.4981 20.006 12.6243C21.2642 12.9614 22.2468 13.944 22.584 15.2023C22.7101 15.673 22.7093 16.2015 22.7084 16.7392C22.7084 16.7844 22.7083 16.8296 22.7083 16.875H25.6249C26.4304 16.875 27.0833 17.5279 27.0833 18.3333C27.0833 19.1388 26.4304 19.7917 25.6249 19.7917H22.7083C22.7083 19.837 22.7084 19.8822 22.7084 19.9274C22.7093 20.4651 22.7101 20.9936 22.584 21.4645C22.2468 22.7226 21.2642 23.7054 20.006 24.0424C19.5352 24.1686 19.0067 24.1677 18.469 24.1668C18.4238 24.1668 18.3786 24.1667 18.3333 24.1667C18.2879 24.1667 18.2427 24.1668 18.1975 24.1668C17.6598 24.1677 17.1313 24.1686 16.6605 24.0424C15.4023 23.7054 14.4197 22.7226 14.0825 21.4645C13.9564 20.9936 13.9572 20.4651 13.9581 19.9274C13.9581 19.8822 13.9583 19.837 13.9583 19.7917H2.29159C1.48618 19.7917 0.833252 19.1388 0.833252 18.3333C0.833252 17.5279 1.48618 16.875 2.29159 16.875H13.9583C13.9583 16.8298 13.9581 16.7844 13.9581 16.7392C13.9572 16.2015 13.9564 15.673 14.0825 15.2023C14.4197 13.944 15.4023 12.9614 16.6605 12.6243C17.1313 12.4981 17.6598 12.499 18.1975 12.4999ZM17.602 15.4245C17.4466 15.4315 17.41 15.4429 17.4154 15.4415C17.1637 15.509 16.9672 15.7056 16.8997 15.9571C16.9012 15.9517 16.8898 15.9883 16.8828 16.1438C16.8752 16.3071 16.8749 16.5228 16.8749 16.875V19.7917C16.8749 20.144 16.8752 20.3595 16.8828 20.5229C16.8898 20.6785 16.9012 20.7151 16.8997 20.7095C16.9672 20.9613 17.1637 21.1577 17.4154 21.2252C17.41 21.2238 17.4466 21.2351 17.602 21.2423C17.7654 21.2497 17.9809 21.25 18.3333 21.25C18.6856 21.25 18.9011 21.2497 19.0645 21.2423C19.2199 21.2351 19.2565 21.2238 19.2511 21.2252C19.5028 21.1577 19.6993 20.9613 19.7668 20.7095C19.7653 20.7151 19.7767 20.6785 19.7837 20.5229C19.7913 20.3595 19.7916 20.144 19.7916 19.7917V16.875C19.7916 16.5228 19.7913 16.3071 19.7837 16.1438C19.7767 15.9883 19.7653 15.9517 19.7668 15.9571C19.6993 15.7056 19.5028 15.509 19.2511 15.4415C19.2565 15.4429 19.2199 15.4315 19.0645 15.4245C18.9011 15.417 18.6856 15.4167 18.3333 15.4167C17.9809 15.4167 17.7654 15.417 17.602 15.4245Z" fill="#0F1729"/>
</svg>
