<svg width="35" height="36" viewBox="0 0 35 36" fill="none" xmlns="http://www.w3.org/2000/svg">
<path d="M16.0606 3.65863C15.436 3.65862 14.8331 3.88768 14.366 4.30242C13.899 4.71716 13.6002 5.28878 13.5264 5.90902L15.6986 6.16769C15.7091 6.07907 15.7518 5.99739 15.8185 5.93813C15.8852 5.87887 15.9714 5.84613 16.0606 5.84613V3.65863ZM18.9394 3.65863H16.0606V5.84613H18.9394V3.65863ZM21.4736 5.90902C21.3997 5.28878 21.101 4.71716 20.634 4.30242C20.1669 3.88768 19.564 3.65862 18.9394 3.65863V5.84613C19.0286 5.84613 19.1148 5.87887 19.1815 5.93813C19.2482 5.99739 19.2909 6.07907 19.3014 6.16769L21.4736 5.90902ZM21.6958 7.77569L21.4736 5.90902L19.3014 6.16769L19.5234 8.03436L21.6958 7.77569ZM26.1938 8.63428L24.4597 9.37803L25.3216 11.3883L27.0559 10.6446L26.1938 8.63428ZM29.4098 9.70379C29.0975 9.16285 28.5977 8.75523 28.005 8.55812C27.4123 8.36102 26.7679 8.38811 26.1938 8.63428L27.0559 10.6446C27.1379 10.6094 27.23 10.6057 27.3147 10.6338C27.3994 10.662 27.4708 10.7202 27.5155 10.7975L29.4098 9.70379ZM30.8492 12.1968L29.4098 9.70379L27.5155 10.7975L28.9548 13.2906L30.8492 12.1968ZM30.1674 15.5167C30.6677 15.1426 31.0133 14.5981 31.139 13.9863C31.2646 13.3744 31.1615 12.7377 30.8492 12.1968L28.9548 13.2906C28.9995 13.3679 29.0142 13.4588 28.9962 13.5462C28.9782 13.6337 28.9288 13.7115 28.8573 13.7649L30.1674 15.5167ZM28.5297 16.7413L30.1674 15.5167L28.8573 13.7649L27.2196 14.9895L28.5297 16.7413ZM30.1674 20.9672L28.5297 19.7426L27.2198 21.4944L28.8573 22.719L30.1674 20.9672ZM30.8492 24.2871C31.1615 23.7462 31.2646 23.1095 31.139 22.4977C31.0133 21.8858 30.6677 21.3413 30.1674 20.9672L28.8573 22.719C28.9288 22.7725 28.9782 22.8503 28.9962 22.9377C29.0142 23.0251 28.9995 23.1161 28.9548 23.1934L30.8492 24.2871ZM29.4098 26.7801L30.8492 24.2871L28.9548 23.1934L27.5155 25.6864L29.4098 26.7801ZM26.1938 27.8496C26.7679 28.0958 27.4123 28.1229 28.005 27.9258C28.5977 27.7287 29.0975 27.3211 29.4098 26.7801L27.5155 25.6864C27.4708 25.7637 27.3994 25.8219 27.3147 25.85C27.23 25.8782 27.1379 25.8743 27.0559 25.8392L26.1938 27.8496ZM24.4597 27.1059L26.1938 27.8496L27.0559 25.8392L25.3219 25.0956L24.4597 27.1059ZM21.4736 30.5749L21.6956 28.7082L19.5236 28.4496L19.3014 30.3162L21.4736 30.5749ZM18.9394 32.8253C19.564 32.8253 20.1669 32.5962 20.634 32.1815C21.101 31.7668 21.3997 31.1951 21.4736 30.5749L19.3014 30.3162C19.2909 30.4049 19.2482 30.4865 19.1815 30.5458C19.1148 30.6051 19.0286 30.6378 18.9394 30.6378V32.8253ZM16.0606 32.8253H18.9394V30.6378H16.0606V32.8253ZM13.5264 30.5749C13.6002 31.1951 13.899 31.7668 14.366 32.1815C14.8331 32.5962 15.436 32.8253 16.0606 32.8253V30.6378C15.9714 30.6378 15.8852 30.6051 15.8185 30.5458C15.7518 30.4865 15.7091 30.4049 15.6986 30.3162L13.5264 30.5749ZM13.3419 29.0247L13.5264 30.5749L15.6986 30.3162L15.5141 28.766L13.3419 29.0247ZM9.37489 25.2256L7.94409 25.8392L8.80614 27.8496L10.2369 27.2361L9.37489 25.2256ZM7.94409 25.8392C7.86209 25.8743 7.76986 25.8782 7.6852 25.85C7.60054 25.8219 7.52915 25.7637 7.48453 25.6864L5.59015 26.7801C5.90245 27.3211 6.40229 27.7287 6.99499 27.9258C7.58768 28.1229 8.23208 28.0958 8.80614 27.8496L7.94409 25.8392ZM7.48453 25.6864L6.04515 23.1934L4.15078 24.2871L5.59015 26.7801L7.48453 25.6864ZM6.04515 23.1934C6.00054 23.1161 5.98582 23.0251 6.00379 22.9377C6.02177 22.8503 6.07118 22.7725 6.14268 22.719L4.83255 20.9672C4.33233 21.3413 3.98666 21.8858 3.86101 22.4977C3.73536 23.1095 3.83846 23.7462 4.15078 24.2871L6.04515 23.1934ZM6.14268 22.719L7.26049 21.8832L5.95018 20.1314L4.83255 20.9672L6.14268 22.719ZM4.83255 15.5167L5.95036 16.3527L7.26049 14.6009L6.14268 13.7649L4.83255 15.5167ZM4.15078 12.1968C3.83846 12.7377 3.73536 13.3744 3.86101 13.9863C3.98666 14.5981 4.33233 15.1426 4.83255 15.5167L6.14268 13.7649C6.07118 13.7115 6.02177 13.6337 6.00379 13.5462C5.98582 13.4588 6.00054 13.3679 6.04515 13.2906L4.15078 12.1968ZM5.59015 9.70379L4.15078 12.1968L6.04515 13.2906L7.48453 10.7975L5.59015 9.70379ZM8.80614 8.63428C8.23208 8.38811 7.58768 8.36102 6.99499 8.55812C6.40229 8.75523 5.90245 9.16285 5.59015 9.70379L7.48453 10.7975C7.52915 10.7203 7.60054 10.6621 7.6852 10.6339C7.76986 10.6058 7.86209 10.6096 7.94409 10.6448L8.80614 8.63428ZM10.2369 9.24788L8.80614 8.63428L7.94409 10.6448L9.37489 11.2584L10.2369 9.24788ZM13.5264 5.90902L13.3419 7.45923L15.5141 7.7179L15.6986 6.16769L13.5264 5.90902ZM13.2067 10.9315C14.3146 10.307 15.3377 9.19957 15.5141 7.7179L13.3419 7.45923C13.2723 8.0442 12.8372 8.62881 12.1324 9.02621L13.2067 10.9315ZM9.37489 11.2584C10.7027 11.8278 12.1193 11.5446 13.2067 10.9315L12.1324 9.02621C11.4572 9.40683 10.7687 9.47592 10.2369 9.24788L9.37489 11.2584ZM8.93229 18.242C8.93229 16.9477 8.46781 15.5038 7.26049 14.6009L5.95036 16.3527C6.44583 16.7233 6.74479 17.4103 6.74479 18.242H8.93229ZM13.2067 25.5524C12.1193 24.9394 10.7027 24.6561 9.37489 25.2256L10.2369 27.2361C10.7687 27.008 11.4572 27.0773 12.1324 27.4581L13.2067 25.5524ZM7.26049 21.8832C8.46799 20.9804 8.93229 19.5362 8.93229 18.242H6.74479C6.74479 19.0738 6.44565 19.761 5.95018 20.1314L7.26049 21.8832ZM21.6028 25.4516C20.5937 26.0528 19.6857 27.0889 19.5236 28.4496L21.6956 28.7082C21.7556 28.2042 22.1184 27.6907 22.7225 27.3307L21.6028 25.4516ZM25.3219 25.0956C24.0288 24.5411 22.6479 24.8289 21.6028 25.4516L22.7225 27.3307C23.339 26.9633 23.9752 26.8983 24.4597 27.1059L25.3219 25.0956ZM15.5141 28.766C15.3377 27.2845 14.3146 26.1771 13.2067 25.5524L12.1324 27.4581C12.8372 27.8553 13.2723 28.4397 13.3419 29.0247L15.5141 28.766ZM25.7031 18.242C25.7031 19.4066 26.1403 20.6872 27.2198 21.4944L28.5297 19.7426C28.1411 19.452 27.8906 18.9106 27.8906 18.242H25.7031ZM27.2196 14.9895C26.1401 15.7967 25.7031 17.0771 25.7031 18.242H27.8906C27.8906 17.5733 28.1411 17.0319 28.5297 16.7413L27.2196 14.9895ZM21.6028 11.0323C22.6479 11.655 24.0286 11.9429 25.3216 11.3883L24.4597 9.37803C23.9752 9.58584 23.339 9.5204 22.7225 9.15308L21.6028 11.0323ZM19.5234 8.03436C19.6855 9.39499 20.5937 10.4311 21.6028 11.0323L22.7225 9.15308C22.1184 8.79324 21.7558 8.27991 21.6958 7.77569L19.5234 8.03436Z" fill="#101B23"/>
<path d="M17.5 22.1169C19.9163 22.1169 21.875 20.1582 21.875 17.7419C21.875 15.3257 19.9163 13.3669 17.5 13.3669C15.0837 13.3669 13.125 15.3257 13.125 17.7419C13.125 20.1582 15.0837 22.1169 17.5 22.1169Z" stroke="#101B23" stroke-width="2" stroke-linecap="round" stroke-linejoin="round"/>
</svg>
