<svg width="30" height="22" viewBox="0 0 30 22" fill="none" xmlns="http://www.w3.org/2000/svg">
<path fill-rule="evenodd" clip-rule="evenodd" d="M13.0303 12.6145C13.482 15.2757 14.0309 18.0551 14.3344 18.6269C14.765 19.4369 15.7726 19.751 16.5844 19.3204C17.3944 18.8898 17.705 17.8786 17.2744 17.0686C16.9709 16.4969 14.9785 14.4833 13.0303 12.6145ZM12.3456 9.54569C13.3073 10.4351 18.1409 14.9333 18.8344 16.2428C19.7203 17.9122 19.0815 19.991 17.4103 20.8786C16.9003 21.1486 16.3515 21.2757 15.8115 21.2757C14.5815 21.2757 13.3903 20.6139 12.7744 19.4545C12.0809 18.1451 11.0697 11.621 10.8738 10.3257C10.8191 9.95511 11.0026 9.58804 11.3326 9.41511C11.6662 9.23864 12.0685 9.2898 12.3456 9.54569ZM15.0007 0.406128C23.2719 0.406128 30.0007 7.13671 30.0007 15.4061C30.0007 16.6114 29.8613 17.7991 29.5843 18.9355L29.4219 19.6097H21.2284V17.8449H28.0137C28.1619 17.0526 28.236 16.2338 28.236 15.4061C28.236 8.1073 22.2978 2.17082 15.0007 2.17082C7.70192 2.17082 1.76545 8.1073 1.76545 15.4061C1.76545 16.2338 1.83958 17.0526 1.98604 17.8449H9.60251V19.6097H0.577811L0.415467 18.9355C0.140139 17.7991 0.000732422 16.6114 0.000732422 15.4061C0.000732422 7.13671 6.72958 0.406128 15.0007 0.406128ZM23.478 6.5106L24.7257 7.75825L22.9645 9.51943L21.7169 8.27177L23.478 6.5106ZM6.52204 6.5106L8.28322 8.27175L7.03556 9.51941L5.27442 7.75822L6.52206 6.51057L6.52204 6.5106ZM15.8824 3.3643V5.85607H14.1177V3.36428L15.8824 3.3643Z" fill="#101B23"/>
</svg>
