<svg width="30" height="26" viewBox="0 0 30 26" fill="none" xmlns="http://www.w3.org/2000/svg">
<path d="M28 24.1249C28 21.585 25.5652 19.4244 22.1667 18.6234M19.25 24.125C19.25 20.9034 15.3325 18.2917 10.5 18.2917C5.66751 18.2917 1.75 20.9034 1.75 24.125M19.25 13.9167C22.4716 13.9167 25.0833 11.3049 25.0833 8.08333C25.0833 4.86167 22.4716 2.25 19.25 2.25M10.5 13.9167C7.27834 13.9167 4.66667 11.3049 4.66667 8.08333C4.66667 4.86167 7.27834 2.25 10.5 2.25C13.7216 2.25 16.3333 4.86167 16.3333 8.08333C16.3333 11.3049 13.7216 13.9167 10.5 13.9167Z" stroke="#101B23" stroke-width="3" stroke-linecap="round" stroke-linejoin="round"/>
</svg>
