<svg width="31" height="34" viewBox="0 0 31 34" fill="none" xmlns="http://www.w3.org/2000/svg">
<path d="M15.5 21.1667V24.5M7.0625 13.7147C7.85802 13.6667 8.83875 13.6667 10.1 13.6667H20.9C22.1612 13.6667 23.142 13.6667 23.9375 13.7147M7.0625 13.7147C6.06971 13.7745 5.36536 13.9092 4.76418 14.2117C3.8116 14.691 3.03714 15.4558 2.55178 16.3967C2 17.4663 2 18.8663 2 21.6667V24C2 26.8003 2 28.2003 2.55178 29.27C3.03714 30.2108 3.8116 30.9757 4.76418 31.455C5.8471 32 7.26473 32 10.1 32H20.9C23.7353 32 25.1528 32 26.2359 31.455C27.1885 30.9757 27.9629 30.2108 28.4482 29.27C29 28.2003 29 26.8003 29 24V21.6667C29 18.8663 29 17.4663 28.4482 16.3967C27.9629 15.4558 27.1885 14.691 26.2359 14.2117C25.6346 13.9092 24.9303 13.7745 23.9375 13.7147M7.0625 13.7147V10.3333C7.0625 5.73097 10.8401 2 15.5 2C20.1599 2 23.9375 5.73097 23.9375 10.3333V13.7147" stroke="#101B23" stroke-width="2.75" stroke-linecap="round" stroke-linejoin="round"/>
</svg>
