<svg width="37" height="26" viewBox="0 0 37 26" fill="none" xmlns="http://www.w3.org/2000/svg">
<path fill-rule="evenodd" clip-rule="evenodd" d="M9.73225 24.7678L0.4645 15.5L9.73225 6.23225C10.7085 5.256 12.2915 5.256 13.2677 6.23225C14.2441 7.2085 14.2441 8.79145 13.2677 9.76778L10.0355 13H27.75C29.8211 13 31.5 11.3211 31.5 9.25C31.5 7.179 29.8211 5.5 27.75 5.5H24C22.6193 5.5 21.5 4.38075 21.5 3C21.5 1.61925 22.6193 0.5 24 0.5H27.75C32.5825 0.5 36.5 4.4175 36.5 9.25C36.5 14.0825 32.5825 18 27.75 18H10.0355L13.2677 21.2322C14.2441 22.2086 14.2441 23.7915 13.2677 24.7678C12.2915 25.7441 10.7085 25.7441 9.73225 24.7678Z" fill="#101B23"/>
</svg>
