<svg width="25" height="30" viewBox="0 0 25 30" fill="none" xmlns="http://www.w3.org/2000/svg">
<path d="M1.75 26.4586V6.13919C1.75 4.42792 1.75 3.57164 2.08304 2.91803C2.37598 2.34308 2.84308 1.87598 3.41803 1.58304C4.07164 1.25 4.92792 1.25 6.63919 1.25H20.6947C21.5503 1.25 21.9788 1.25 22.3056 1.41651C22.593 1.563 22.8254 1.79655 22.9717 2.08401C23.1383 2.41082 23.1389 2.83897 23.1389 3.6946V21.7224C23.1389 22.5779 23.1383 23.0053 22.9717 23.332C22.8254 23.6196 22.5933 23.8538 22.3059 24.0003C21.9795 24.1667 21.5515 24.1667 20.6975 24.1667H5.1875C3.28902 24.1667 1.75 25.7058 1.75 27.6042C1.75 28.237 2.26301 28.75 2.89583 28.75H19.1697C20.0237 28.75 20.4517 28.75 20.7782 28.5836C21.0655 28.4371 21.2976 28.2031 21.444 27.9155C21.6105 27.5887 21.6111 27.1613 21.6111 26.3056V24.1667" stroke="#101B23" stroke-width="3" stroke-linecap="round" stroke-linejoin="round"/>
</svg>
