<svg width="30" height="22" viewBox="0 0 30 22" fill="none" xmlns="http://www.w3.org/2000/svg">
<path fill-rule="evenodd" clip-rule="evenodd" d="M13.03 12.6145C13.4818 15.2757 14.0306 18.0551 14.3342 18.6269C14.7647 19.4369 15.7724 19.751 16.5842 19.3204C17.3942 18.8898 17.7047 17.8786 17.2742 17.0686C16.9706 16.4969 14.9783 14.4833 13.03 12.6145ZM12.3453 9.54569C13.3071 10.4351 18.1406 14.9333 18.8342 16.2428C19.72 17.9122 19.0812 19.991 17.41 20.8786C16.9 21.1486 16.3512 21.2757 15.8112 21.2757C14.5812 21.2757 13.39 20.6139 12.7742 19.4545C12.0806 18.1451 11.0694 11.621 10.8736 10.3257C10.8189 9.95511 11.0024 9.58804 11.3324 9.41511C11.6659 9.23864 12.0683 9.2898 12.3453 9.54569ZM15.0005 0.406128C23.2717 0.406128 30.0005 7.13671 30.0005 15.4061C30.0005 16.6114 29.8611 17.7991 29.584 18.9355L29.4217 19.6097H21.2282V17.8449H28.0134C28.1617 17.0526 28.2358 16.2338 28.2358 15.4061C28.2358 8.1073 22.2976 2.17082 15.0005 2.17082C7.70168 2.17082 1.76521 8.1073 1.76521 15.4061C1.76521 16.2338 1.83933 17.0526 1.9858 17.8449H9.60227V19.6097H0.577566L0.415223 18.9355C0.139895 17.7991 0.000488281 16.6114 0.000488281 15.4061C0.000488281 7.13671 6.72933 0.406128 15.0005 0.406128ZM23.4778 6.5106L24.7255 7.75825L22.9643 9.51943L21.7166 8.27177L23.4778 6.5106ZM6.5218 6.5106L8.28297 8.27175L7.03532 9.51941L5.27418 7.75822L6.52182 6.51057L6.5218 6.5106ZM15.8822 3.3643V5.85607H14.1174V3.36428L15.8822 3.3643Z" fill="white"/>
</svg>
