<svg width="26" height="30" viewBox="0 0 26 30" fill="none" xmlns="http://www.w3.org/2000/svg">
<path d="M2.19781 0.0637589C1.40529 0.244066 0.638062 0.877741 0.257574 1.65438L0.0229717 2.13897L0.00391617 14.8155C-0.0088917 23.3037 0.010164 27.5913 0.0545229 27.7902C0.231959 28.6103 0.859857 29.3625 1.69049 29.7476L2.17876 29.9775L12.3563 29.9962C19.1476 30.0087 22.6351 29.99 22.8382 29.9466C23.8591 29.7353 24.7975 28.828 25.0324 27.8276C25.0767 27.6473 25.102 24.6148 25.102 19.2274C25.102 11.2177 25.0958 10.8883 24.9815 10.6522C24.8293 10.3415 14.4428 0.15682 14.1763 0.0576363C13.9542 -0.02318 2.54675 -0.0170574 2.19781 0.0637589ZM12.1027 5.88622C12.1027 10.2733 12.1089 10.3293 12.4641 10.932C12.7431 11.398 13.2566 11.8455 13.7958 12.1002L14.2903 12.3301L18.7481 12.3488L23.1996 12.3675V20.0043C23.1996 25.7958 23.1805 27.6785 23.1234 27.8028C22.9584 28.1631 23.5863 28.1444 12.5466 28.1444C1.50681 28.1444 2.1344 28.1631 1.96977 27.8028C1.84919 27.5542 1.862 2.38785 1.98258 2.17662C2.16657 1.85336 2.02069 1.86591 7.23943 1.85978H12.103V5.88622H12.1027ZM18.3804 10.4845C14.1572 10.497 14.2016 10.5032 14.0685 10.149C14.0304 10.0556 14.0051 8.45888 14.0051 6.19081V2.38785L18.1267 6.42683L22.2484 10.4658L18.3804 10.4845Z" fill="white"/>
</svg>
